<svg width="14" height="15" viewBox="0 0 14 15" fill="none" xmlns="http://www.w3.org/2000/svg">
<path fill-rule="evenodd" clip-rule="evenodd" d="M11.1738 1.41827C11.5711 1.71584 11.9388 2.05548 12.266 2.42628C13.3846 3.70382 14 5.34282 14 7.04102C14 10.9001 10.8591 14.041 7 14.041C5.3018 14.041 3.66281 13.4256 2.38527 12.307C2.01447 11.9798 1.67483 11.6121 1.37725 11.2148C0.476742 10.0012 0 8.55693 0 7.04102C0 3.1819 3.14089 0.0410156 7 0.0410156C8.51591 0.0410156 9.9586 0.517757 11.1738 1.41827ZM7 12.5765C10.0521 12.5765 12.5355 10.0931 12.5355 7.04102C12.5355 5.69804 12.0479 4.4018 11.1645 3.39067C10.9059 3.09777 10.613 2.82824 10.2951 2.58987C9.33853 1.88099 8.19964 1.50552 7 1.50552C3.94792 1.50552 1.4645 3.98893 1.4645 7.04102C1.4645 8.24066 1.84153 9.38266 2.55197 10.3408C2.78722 10.6555 3.05676 10.9469 3.35277 11.2071C4.36078 12.0904 5.65702 12.5765 7 12.5765ZM4.95281 4.72897H2.85733V9.3515H4.06321V7.78885H4.88738C6.4251 7.7795 6.75851 6.93663 6.76786 6.22308L6.7663 6.2075C6.71644 5.56249 6.35967 4.7835 4.95281 4.72897ZM5.52926 6.23554C5.52615 6.48949 5.43734 6.74967 4.80325 6.75746H4.06165V5.76815H4.79857C5.42021 5.78373 5.5168 6.01586 5.52926 6.23554ZM8.77142 4.72897H7.04829V9.3515H8.78232C8.79888 9.3515 8.81504 9.3519 8.83101 9.35229L8.83111 9.35229C8.84665 9.35268 8.86201 9.35306 8.87736 9.35306C9.66881 9.35306 10.2718 9.14896 10.6722 8.74856C11.0694 8.34972 11.2626 7.76236 11.2455 7.00051C11.2081 5.5438 10.3528 4.75857 8.77142 4.72897ZM8.25417 8.2983V5.78217H8.74337C9.59247 5.80554 9.98197 6.18724 10.0069 7.01765C10.0085 7.46167 9.90563 7.7904 9.70153 7.99606C9.50055 8.19704 9.18117 8.2983 8.74182 8.2983H8.25417Z" fill="#C7CBD5"/>
</svg>
